<?xml version="1.0" encoding="utf-8"?>
<?xml-stylesheet type="text/xsl" href="rss1.xsl"?>
<rss version="2.0" xmlns:atom="http://www.w3.org/2005/Atom" xmlns:content="http://purl.org/rss/1.0/modules/content/" xmlns:dc="http://purl.org/dc/elements/1.1/" xmlns:media="http://search.yahoo.com/mrss/">
<channel>
 <title>Getty</title>
 <link>http://www.gettyimg.com/</link>
 <atom:link href="http://www.gettyimg.com/" rel="self" type="application/rss+xml" />

 
                <item>
                <title><![CDATA[【HD Live Performances】WEB-DL - Jessie Ware 'Radio 2 in The Park 2023 (1080)]]></title>
                <link><![CDATA[https://sharemania.us/threads/jessie-ware-radio-2-in-the-park-2023-1080.228621/]]></link>
                <description><![CDATA[<article>
<blockquote class="messageText SelectQuoteContainer ugc baseHtml">
<div style="text-align: center"><img src="https://i.imgur.com/yw0zK9L.gif" class="bbCodeImage LbImage" alt="[​IMG]" data-url="https://i.imgur.com/yw0zK9L.gif" style=""><br>
<br>
​</div>
<div class="ToggleTriggerAnchor bbCodeSpoilerContainer">
<button type="button" class="button bbCodeSpoilerButton ToggleTrigger Tooltip JsOnly" data-target="> .SpoilerTarget"><span>Spoiler: <span class="SpoilerTitle">Radio 2 in The Park</span></span></button>
<div class="SpoilerTarget bbCodeSpoilerText">
<div class="bbCodeBlock bbCodeCode">
<div class="type">Code:</div>
<pre>Format                                   : MPEG-4
Format profile                           : Base Media
Codec ID                                 : isom (isom/iso2/avc1/mp41)
File size                                : 2.25 GiB
Duration                                 : 28 min 34 s
Overall bit rate mode                    : Variable
Overall bit rate                         : 11.3 Mb/s
Collection                               : Radio 2 in the Park: 2023
Album                                    : Radio 2 in the Park: 2023
Album/Performer                          : BBC TV
Track name                               : Jessie Ware
Grouping                                 : Music,Dance &amp; Electronica
Performer                                : BBC Radio 2
Composer                                 : BBC iPlayer
Genre                                    : Music
ContentType                              : TV Show
Description                              : Pop diva turned podcast superstar provides the disco
Recorded date                            : UTC 2023-09-17 22:55:07
Tagged date                              : UTC 2023-09-17 22:55:07
Copyright                                : 2023 British Broadcasting Corporation, all rights reserved
Cover                                    : Yes
Lyrics                                   : Pop diva turned podcast superstar provides the disco /  / PLAY: https://www.bbc.co.uk/iplayer/episode/p0g5ncpr /  / INFO: https://www.bbc.co.uk/programmes/p0g5ncpr
Comment                                  : Pop diva turned podcast superstar provides the disco
Part_ID                                  : p0g5ncpr
TVNetworkName                            : BBC Radio 2
LongDescription                          : Pop diva turned podcast superstar provides the disco /  / PLAY: https://www.bbc.co.uk/iplayer/episode/p0g5ncpr /  / INFO: https://www.bbc.co.uk/programmes/p0g5ncpr

Video
ID                                       : 1
Format                                   : AVC
Format/Info                              : Advanced Video Codec
Format profile                           : High@L4.2
Format settings                          : CABAC / 4 Ref Frames
Format settings, CABAC                   : Yes
Format settings, Reference frames        : 4 frames
Codec ID                                 : avc1
Codec ID/Info                            : Advanced Video Coding
Duration                                 : 28 min 34 s
Bit rate mode                            : Variable
Bit rate                                 : 11.1 Mb/s
Maximum bit rate                         : 12.0 Mb/s
Width                                    : 1 920 pixels
Height                                   : 1 080 pixels
Display aspect ratio                     : 16:9
Frame rate mode                          : Constant
Frame rate                               : 50.000 FPS
Color space                              : YUV
Chroma subsampling                       : 4:2:0
Bit depth                                : 8 bits
Scan type                                : Progressive
Bits/(Pixel*Frame)                       : 0.108
Stream size                              : 2.22 GiB (99%)
Color range                              : Limited
Color primaries                          : BT.709
Transfer characteristics                 : BT.709
Matrix coefficients                      : BT.709
Codec configuration box                  : avcC

Audio
ID                                       : 2
Format                                   : AAC LC
Format/Info                              : Advanced Audio Codec Low Complexity
Codec ID                                 : mp4a-40-2
Duration                                 : 28 min 34 s
Bit rate mode                            : Variable
Bit rate                                 : 128 kb/s
Maximum bit rate                         : 131 kb/s / 131 kb/s
Channel(s)                               : 2 channels
Channel layout                           : L R
Sampling rate                            : 48.0 kHz
Frame rate                               : 46.875 FPS (1024 SPF)
Compression mode                         : Lossy
Stream size                              : 26.2 MiB (1%)
Language                                 : English
Default                                  : Yes
Alternate group                          : 1</pre>
</div><div style="text-align: center">​</div></div>
</div><div style="text-align: center"><br>
<br>
<div class="bbCodeBlock bbCodeVfcHH HiddenContent">
<div class="attribution type">Hidden Content:</div>
<blockquote>You must reply before you can see the hidden data contained here.</blockquote>
</div><img src="https://i.imgur.com/c6wKyHP.jpg" class="bbCodeImage LbImage" alt="[​IMG]" data-url="https://i.imgur.com/c6wKyHP.jpg" style="">​</div>
<div class="messageTextEndMarker">&nbsp;</div>
</blockquote>
</article>]]></description>
                <author><![CDATA[fstambuk]]></author>
                </item>

                </channel></rss>